<svg width="1363" height="301" viewBox="0 0 1363 301" fill="none" xmlns="http://www.w3.org/2000/svg">
<rect width="1363" height="301" rx="15" fill="#F0F0F0"/>
<path d="M0 15C0 6.71573 6.71573 0 15 0H37V301H15C6.71573 301 0 294.284 0 286V15Z" fill="#00B2FF"/>
<path d="M121.326 120.421V127.672H101.265V120.421H121.326ZM104.407 104.898V144H94.981V104.898H104.407ZM127.664 104.898V144H118.265V104.898H127.664ZM142.784 114.942V144H133.707V114.942H142.784ZM133.169 107.45C133.169 106.161 133.635 105.104 134.566 104.281C135.497 103.457 136.705 103.045 138.191 103.045C139.677 103.045 140.886 103.457 141.817 104.281C142.748 105.104 143.213 106.161 143.213 107.45C143.213 108.739 142.748 109.795 141.817 110.619C140.886 111.442 139.677 111.854 138.191 111.854C136.705 111.854 135.497 111.442 134.566 110.619C133.635 109.795 133.169 108.739 133.169 107.45ZM157.5 122.14V144H148.45V114.942H156.91L157.5 122.14ZM166.094 114.728L165.933 123.133C165.575 123.097 165.092 123.053 164.483 122.999C163.874 122.945 163.364 122.918 162.952 122.918C161.896 122.918 160.983 123.044 160.213 123.294C159.461 123.527 158.834 123.885 158.333 124.369C157.85 124.834 157.492 125.425 157.259 126.141C157.044 126.857 156.945 127.69 156.963 128.639L155.325 127.564C155.325 125.613 155.513 123.84 155.889 122.247C156.283 120.636 156.838 119.248 157.554 118.084C158.27 116.903 159.139 115.999 160.159 115.372C161.18 114.728 162.326 114.405 163.597 114.405C164.044 114.405 164.483 114.432 164.913 114.486C165.36 114.54 165.754 114.62 166.094 114.728ZM182.745 144.537C180.381 144.537 178.269 144.17 176.407 143.436C174.545 142.684 172.969 141.655 171.68 140.348C170.409 139.041 169.433 137.537 168.753 135.836C168.09 134.135 167.759 132.336 167.759 130.438V129.417C167.759 127.287 168.055 125.318 168.646 123.509C169.236 121.683 170.114 120.09 171.277 118.729C172.441 117.368 173.9 116.312 175.655 115.56C177.409 114.79 179.45 114.405 181.778 114.405C183.837 114.405 185.681 114.736 187.31 115.399C188.939 116.061 190.318 117.01 191.446 118.246C192.592 119.481 193.46 120.976 194.051 122.73C194.66 124.485 194.964 126.454 194.964 128.639V132.318H171.224V126.651H186.128V125.953C186.146 124.986 185.976 124.163 185.618 123.482C185.278 122.802 184.777 122.283 184.114 121.925C183.452 121.567 182.646 121.388 181.697 121.388C180.713 121.388 179.898 121.603 179.253 122.032C178.627 122.462 178.134 123.053 177.776 123.805C177.436 124.539 177.194 125.389 177.051 126.356C176.908 127.323 176.836 128.343 176.836 129.417V130.438C176.836 131.512 176.98 132.488 177.266 133.365C177.57 134.243 178 134.994 178.555 135.621C179.128 136.23 179.808 136.704 180.596 137.044C181.402 137.385 182.315 137.555 183.335 137.555C184.571 137.555 185.788 137.322 186.988 136.856C188.187 136.391 189.217 135.621 190.076 134.547L194.185 139.435C193.594 140.276 192.753 141.091 191.661 141.878C190.586 142.666 189.297 143.311 187.793 143.812C186.29 144.295 184.607 144.537 182.745 144.537ZM208.204 102.75V144H199.126V102.75H208.204ZM222.706 140.589L230.225 114.942H239.947L228.265 148.324C228.014 149.058 227.683 149.846 227.271 150.687C226.859 151.546 226.295 152.361 225.579 153.131C224.863 153.901 223.941 154.527 222.813 155.011C221.703 155.494 220.324 155.736 218.677 155.736C217.8 155.736 217.155 155.691 216.744 155.602C216.35 155.53 215.741 155.396 214.917 155.199V148.727C215.15 148.727 215.347 148.727 215.508 148.727C215.687 148.727 215.884 148.727 216.099 148.727C217.066 148.727 217.836 148.628 218.409 148.431C219 148.234 219.447 147.948 219.751 147.572C220.074 147.196 220.324 146.739 220.503 146.202L222.706 140.589ZM220.799 114.942L226.519 135.272L227.513 144.859H221.443L211.104 114.942H220.799Z" fill="black"/>
<path d="M104.288 72.3608V55.1172H109.397V72.3608C109.397 74.0243 109.033 75.4541 108.304 76.6504C107.575 77.8353 106.578 78.7467 105.313 79.3848C104.06 80.0228 102.647 80.3418 101.075 80.3418C99.4455 80.3418 98.0042 80.0684 96.751 79.5215C95.4977 78.9746 94.5122 78.1372 93.7944 77.0093C93.0767 75.87 92.7178 74.4287 92.7178 72.6855H97.8618C97.8618 73.597 97.9871 74.3205 98.2378 74.856C98.4998 75.3914 98.8701 75.7731 99.3486 76.001C99.8271 76.2288 100.403 76.3428 101.075 76.3428C101.724 76.3428 102.288 76.189 102.767 75.8813C103.245 75.5737 103.615 75.1237 103.877 74.5312C104.151 73.9388 104.288 73.2153 104.288 72.3608ZM112.679 70.9424V70.5835C112.679 69.2277 112.872 67.9801 113.26 66.8408C113.647 65.6901 114.211 64.6932 114.952 63.8501C115.692 63.007 116.604 62.3519 117.686 61.8848C118.768 61.4062 120.01 61.167 121.412 61.167C122.813 61.167 124.061 61.4062 125.154 61.8848C126.248 62.3519 127.165 63.007 127.906 63.8501C128.658 64.6932 129.227 65.6901 129.615 66.8408C130.002 67.9801 130.196 69.2277 130.196 70.5835V70.9424C130.196 72.2868 130.002 73.5343 129.615 74.6851C129.227 75.8244 128.658 76.8213 127.906 77.6758C127.165 78.5189 126.254 79.174 125.171 79.6411C124.089 80.1082 122.847 80.3418 121.446 80.3418C120.044 80.3418 118.797 80.1082 117.703 79.6411C116.621 79.174 115.704 78.5189 114.952 77.6758C114.211 76.8213 113.647 75.8244 113.26 74.6851C112.872 73.5343 112.679 72.2868 112.679 70.9424ZM117.601 70.5835V70.9424C117.601 71.7171 117.669 72.4406 117.806 73.1128C117.942 73.785 118.159 74.3774 118.455 74.8901C118.763 75.3914 119.161 75.7845 119.651 76.0693C120.141 76.3542 120.739 76.4966 121.446 76.4966C122.129 76.4966 122.716 76.3542 123.206 76.0693C123.696 75.7845 124.089 75.3914 124.385 74.8901C124.681 74.3774 124.898 73.785 125.035 73.1128C125.183 72.4406 125.257 71.7171 125.257 70.9424V70.5835C125.257 69.8315 125.183 69.1252 125.035 68.4644C124.898 67.7922 124.676 67.1997 124.368 66.687C124.072 66.1629 123.679 65.7528 123.189 65.4565C122.699 65.1603 122.107 65.0122 121.412 65.0122C120.717 65.0122 120.124 65.1603 119.634 65.4565C119.156 65.7528 118.763 66.1629 118.455 66.687C118.159 67.1997 117.942 67.7922 117.806 68.4644C117.669 69.1252 117.601 69.8315 117.601 70.5835ZM141.731 80.3418C140.296 80.3418 139.008 80.1139 137.869 79.6582C136.73 79.1911 135.761 78.5474 134.964 77.7271C134.178 76.9067 133.574 75.9554 133.152 74.873C132.731 73.7793 132.52 72.6172 132.52 71.3867V70.7031C132.52 69.3018 132.719 68.02 133.118 66.8579C133.517 65.6958 134.087 64.6875 134.827 63.833C135.579 62.9785 136.491 62.3234 137.562 61.8677C138.632 61.4006 139.84 61.167 141.185 61.167C142.495 61.167 143.657 61.3835 144.671 61.8164C145.685 62.2493 146.534 62.8646 147.217 63.6621C147.912 64.4596 148.436 65.4167 148.79 66.5332C149.143 67.6383 149.319 68.8688 149.319 70.2246V72.2754H134.622V68.9941H144.483V68.6182C144.483 67.9346 144.358 67.325 144.107 66.7896C143.868 66.2427 143.503 65.8097 143.013 65.4907C142.523 65.1717 141.897 65.0122 141.133 65.0122C140.484 65.0122 139.926 65.1546 139.458 65.4395C138.991 65.7243 138.61 66.123 138.313 66.6357C138.029 67.1484 137.812 67.7523 137.664 68.4473C137.527 69.1309 137.459 69.8828 137.459 70.7031V71.3867C137.459 72.1273 137.562 72.8109 137.767 73.4375C137.983 74.0641 138.285 74.6053 138.672 75.061C139.071 75.5168 139.55 75.87 140.108 76.1206C140.678 76.3713 141.321 76.4966 142.039 76.4966C142.928 76.4966 143.754 76.3257 144.517 75.9839C145.292 75.6307 145.958 75.1009 146.517 74.3945L148.909 76.9922C148.522 77.5505 147.992 78.0859 147.32 78.5986C146.659 79.1113 145.861 79.5329 144.927 79.8633C143.993 80.1823 142.928 80.3418 141.731 80.3418ZM163.487 55.1172H167.828L174.219 73.3862L180.611 55.1172H184.952L175.962 80H172.476L163.487 55.1172ZM161.146 55.1172H165.469L166.255 72.9248V80H161.146V55.1172ZM182.969 55.1172H187.31V80H182.183V72.9248L182.969 55.1172ZM190.711 70.9424V70.5835C190.711 69.2277 190.905 67.9801 191.292 66.8408C191.679 65.6901 192.243 64.6932 192.984 63.8501C193.724 63.007 194.636 62.3519 195.718 61.8848C196.801 61.4062 198.042 61.167 199.444 61.167C200.845 61.167 202.093 61.4062 203.187 61.8848C204.28 62.3519 205.197 63.007 205.938 63.8501C206.69 64.6932 207.26 65.6901 207.647 66.8408C208.034 67.9801 208.228 69.2277 208.228 70.5835V70.9424C208.228 72.2868 208.034 73.5343 207.647 74.6851C207.26 75.8244 206.69 76.8213 205.938 77.6758C205.197 78.5189 204.286 79.174 203.204 79.6411C202.121 80.1082 200.879 80.3418 199.478 80.3418C198.077 80.3418 196.829 80.1082 195.735 79.6411C194.653 79.174 193.736 78.5189 192.984 77.6758C192.243 76.8213 191.679 75.8244 191.292 74.6851C190.905 73.5343 190.711 72.2868 190.711 70.9424ZM195.633 70.5835V70.9424C195.633 71.7171 195.701 72.4406 195.838 73.1128C195.975 73.785 196.191 74.3774 196.487 74.8901C196.795 75.3914 197.194 75.7845 197.684 76.0693C198.174 76.3542 198.772 76.4966 199.478 76.4966C200.162 76.4966 200.748 76.3542 201.238 76.0693C201.728 75.7845 202.121 75.3914 202.417 74.8901C202.714 74.3774 202.93 73.785 203.067 73.1128C203.215 72.4406 203.289 71.7171 203.289 70.9424V70.5835C203.289 69.8315 203.215 69.1252 203.067 68.4644C202.93 67.7922 202.708 67.1997 202.4 66.687C202.104 66.1629 201.711 65.7528 201.221 65.4565C200.731 65.1603 200.139 65.0122 199.444 65.0122C198.749 65.0122 198.156 65.1603 197.667 65.4565C197.188 65.7528 196.795 66.1629 196.487 66.687C196.191 67.1997 195.975 67.7922 195.838 68.4644C195.701 69.1252 195.633 69.8315 195.633 70.5835ZM222.19 75.5737V61.5088H227.112V80H222.481L222.19 75.5737ZM222.737 71.7798L224.19 71.7456C224.19 72.9761 224.048 74.1211 223.763 75.1807C223.478 76.2288 223.051 77.1403 222.481 77.915C221.911 78.6784 221.194 79.2765 220.328 79.7095C219.462 80.131 218.442 80.3418 217.269 80.3418C216.368 80.3418 215.537 80.2165 214.773 79.9658C214.021 79.7038 213.372 79.2993 212.825 78.7524C212.29 78.1942 211.868 77.4821 211.561 76.6162C211.264 75.7389 211.116 74.6851 211.116 73.4546V61.5088H216.038V73.4888C216.038 74.0356 216.101 74.4971 216.226 74.873C216.363 75.249 216.551 75.5566 216.79 75.7959C217.029 76.0352 217.308 76.2061 217.627 76.3086C217.958 76.4111 218.322 76.4624 218.721 76.4624C219.735 76.4624 220.533 76.2573 221.114 75.8472C221.706 75.437 222.122 74.8787 222.361 74.1724C222.612 73.4546 222.737 72.6571 222.737 71.7798ZM240.87 74.8901C240.87 74.5369 240.767 74.2179 240.562 73.9331C240.357 73.6483 239.975 73.3862 239.417 73.147C238.87 72.8963 238.078 72.6685 237.042 72.4634C236.107 72.2583 235.236 72.002 234.427 71.6943C233.629 71.3753 232.934 70.9937 232.342 70.5493C231.761 70.105 231.305 69.5809 230.975 68.9771C230.644 68.3618 230.479 67.6611 230.479 66.875C230.479 66.1003 230.644 65.3711 230.975 64.6875C231.316 64.0039 231.801 63.4001 232.427 62.876C233.065 62.3405 233.84 61.9246 234.751 61.6284C235.674 61.3208 236.711 61.167 237.862 61.167C239.468 61.167 240.847 61.4233 241.998 61.936C243.16 62.4487 244.048 63.1551 244.664 64.0552C245.29 64.9438 245.604 65.9578 245.604 67.0972H240.682C240.682 66.6187 240.579 66.1914 240.374 65.8154C240.18 65.4281 239.873 65.1261 239.451 64.9097C239.041 64.6818 238.506 64.5679 237.845 64.5679C237.298 64.5679 236.825 64.6647 236.426 64.8584C236.028 65.0407 235.72 65.2913 235.503 65.6104C235.298 65.918 235.196 66.2598 235.196 66.6357C235.196 66.9206 235.253 67.1769 235.367 67.4048C235.492 67.6213 235.691 67.8206 235.965 68.0029C236.238 68.1852 236.591 68.3561 237.024 68.5156C237.469 68.6637 238.016 68.8005 238.665 68.9258C239.998 69.1992 241.189 69.5581 242.237 70.0024C243.285 70.4354 244.117 71.0278 244.732 71.7798C245.347 72.5203 245.655 73.4945 245.655 74.7021C245.655 75.5225 245.472 76.2744 245.108 76.958C244.743 77.6416 244.219 78.2397 243.536 78.7524C242.852 79.2537 242.032 79.6468 241.075 79.9316C240.129 80.2051 239.064 80.3418 237.879 80.3418C236.159 80.3418 234.7 80.0342 233.504 79.4189C232.319 78.8037 231.419 78.0233 230.804 77.0776C230.2 76.1206 229.898 75.1408 229.898 74.1382H234.563C234.586 74.8104 234.757 75.3516 235.076 75.7617C235.407 76.1719 235.822 76.4681 236.324 76.6504C236.836 76.8327 237.389 76.9238 237.981 76.9238C238.619 76.9238 239.149 76.8384 239.571 76.6675C239.992 76.4852 240.311 76.2459 240.528 75.9497C240.756 75.6421 240.87 75.2889 240.87 74.8901ZM258.848 74.8901C258.848 74.5369 258.746 74.2179 258.541 73.9331C258.335 73.6483 257.954 73.3862 257.396 73.147C256.849 72.8963 256.057 72.6685 255.02 72.4634C254.086 72.2583 253.214 72.002 252.405 71.6943C251.608 71.3753 250.913 70.9937 250.32 70.5493C249.739 70.105 249.284 69.5809 248.953 68.9771C248.623 68.3618 248.458 67.6611 248.458 66.875C248.458 66.1003 248.623 65.3711 248.953 64.6875C249.295 64.0039 249.779 63.4001 250.406 62.876C251.044 62.3405 251.819 61.9246 252.73 61.6284C253.653 61.3208 254.69 61.167 255.84 61.167C257.447 61.167 258.825 61.4233 259.976 61.936C261.138 62.4487 262.027 63.1551 262.642 64.0552C263.269 64.9438 263.582 65.9578 263.582 67.0972H258.66C258.66 66.6187 258.558 66.1914 258.353 65.8154C258.159 65.4281 257.851 65.1261 257.43 64.9097C257.02 64.6818 256.484 64.5679 255.823 64.5679C255.276 64.5679 254.804 64.6647 254.405 64.8584C254.006 65.0407 253.698 65.2913 253.482 65.6104C253.277 65.918 253.174 66.2598 253.174 66.6357C253.174 66.9206 253.231 67.1769 253.345 67.4048C253.471 67.6213 253.67 67.8206 253.943 68.0029C254.217 68.1852 254.57 68.3561 255.003 68.5156C255.447 68.6637 255.994 68.8005 256.644 68.9258C257.977 69.1992 259.167 69.5581 260.215 70.0024C261.264 70.4354 262.095 71.0278 262.71 71.7798C263.326 72.5203 263.633 73.4945 263.633 74.7021C263.633 75.5225 263.451 76.2744 263.086 76.958C262.722 77.6416 262.198 78.2397 261.514 78.7524C260.831 79.2537 260.01 79.6468 259.053 79.9316C258.108 80.2051 257.042 80.3418 255.857 80.3418C254.137 80.3418 252.679 80.0342 251.482 79.4189C250.298 78.8037 249.397 78.0233 248.782 77.0776C248.178 76.1206 247.876 75.1408 247.876 74.1382H252.542C252.565 74.8104 252.736 75.3516 253.055 75.7617C253.385 76.1719 253.801 76.4681 254.302 76.6504C254.815 76.8327 255.368 76.9238 255.96 76.9238C256.598 76.9238 257.128 76.8384 257.549 76.6675C257.971 76.4852 258.29 76.2459 258.506 75.9497C258.734 75.6421 258.848 75.2889 258.848 74.8901ZM276.81 75.8301V67.5928C276.81 67.0003 276.713 66.4933 276.519 66.0718C276.325 65.6388 276.023 65.3027 275.613 65.0635C275.215 64.8242 274.696 64.7046 274.058 64.7046C273.511 64.7046 273.038 64.8014 272.64 64.9951C272.241 65.1774 271.933 65.4451 271.717 65.7983C271.5 66.1401 271.392 66.5446 271.392 67.0117H266.47C266.47 66.2256 266.653 65.4793 267.017 64.7729C267.382 64.0666 267.911 63.4456 268.606 62.9102C269.301 62.3633 270.127 61.936 271.084 61.6284C272.053 61.3208 273.135 61.167 274.332 61.167C275.767 61.167 277.043 61.4062 278.16 61.8848C279.276 62.3633 280.153 63.0811 280.792 64.0381C281.441 64.9951 281.766 66.1914 281.766 67.627V75.5396C281.766 76.5535 281.828 77.3853 281.954 78.0347C282.079 78.6727 282.261 79.231 282.5 79.7095V80H277.527C277.288 79.4987 277.106 78.8721 276.98 78.1201C276.867 77.3568 276.81 76.5934 276.81 75.8301ZM277.459 68.7378L277.493 71.5234H274.742C274.092 71.5234 273.528 71.5975 273.05 71.7456C272.571 71.8937 272.178 72.1045 271.871 72.3779C271.563 72.64 271.335 72.9476 271.187 73.3008C271.05 73.654 270.982 74.0413 270.982 74.4629C270.982 74.8844 271.079 75.2661 271.272 75.6079C271.466 75.9383 271.745 76.2004 272.11 76.394C272.474 76.5763 272.902 76.6675 273.392 76.6675C274.132 76.6675 274.776 76.5194 275.323 76.2231C275.87 75.9269 276.291 75.5623 276.587 75.1294C276.895 74.6965 277.055 74.2863 277.066 73.8989L278.365 75.9839C278.182 76.451 277.932 76.9352 277.613 77.4365C277.305 77.9378 276.912 78.4106 276.434 78.855C275.955 79.2879 275.38 79.6468 274.708 79.9316C274.035 80.2051 273.238 80.3418 272.315 80.3418C271.141 80.3418 270.076 80.1082 269.119 79.6411C268.174 79.1626 267.422 78.5075 266.863 77.6758C266.316 76.8327 266.043 75.8757 266.043 74.8047C266.043 73.8363 266.225 72.9761 266.59 72.2241C266.954 71.4722 267.49 70.8398 268.196 70.3271C268.914 69.8031 269.808 69.41 270.879 69.1479C271.95 68.8745 273.192 68.7378 274.605 68.7378H277.459ZM290.755 53.75V80H285.816V53.75H290.755ZM300.018 53.75V80H295.079V53.75H300.018ZM309.571 77.915L314.476 61.5088H319.756L312.322 82.7856C312.163 83.2528 311.946 83.7541 311.673 84.2896C311.411 84.825 311.052 85.332 310.596 85.8105C310.152 86.3005 309.588 86.6992 308.904 87.0068C308.232 87.3145 307.406 87.4683 306.426 87.4683C305.959 87.4683 305.577 87.4398 305.281 87.3828C304.985 87.3258 304.632 87.2461 304.222 87.1436V83.5376C304.347 83.5376 304.478 83.5376 304.615 83.5376C304.751 83.549 304.882 83.5547 305.008 83.5547C305.657 83.5547 306.187 83.4806 306.597 83.3325C307.007 83.1844 307.338 82.9565 307.588 82.6489C307.839 82.3527 308.038 81.9653 308.187 81.4868L309.571 77.915ZM307.52 61.5088L311.536 74.9072L312.237 80.1196L308.887 80.4785L302.239 61.5088H307.52Z" fill="#888888"/>
<rect x="92" y="181" width="1179" height="80" rx="13.3333" fill="#CCCCCC"/>
<rect x="107" y="196.333" width="208" height="49.3333" rx="4.66667" fill="#888888" stroke="#888888" stroke-width="4"/>
<path d="M150.833 213.167H156.802C157.969 213.167 158.983 213.34 159.844 213.687C160.705 214.035 161.368 214.549 161.833 215.229C162.306 215.91 162.542 216.75 162.542 217.75C162.542 218.618 162.406 219.344 162.135 219.927C161.865 220.51 161.486 220.993 161 221.375C160.521 221.75 159.962 222.059 159.323 222.302L158.125 222.979H153.115L153.094 220.156H156.802C157.267 220.156 157.653 220.073 157.958 219.906C158.264 219.74 158.493 219.503 158.646 219.198C158.806 218.885 158.885 218.514 158.885 218.083C158.885 217.646 158.806 217.271 158.646 216.958C158.486 216.646 158.25 216.406 157.937 216.24C157.632 216.073 157.253 215.99 156.802 215.99H154.49V228.333H150.833V213.167ZM159.135 228.333L155.781 221.625L159.656 221.604L163.052 228.177V228.333H159.135ZM170.042 228.542C169.125 228.542 168.306 228.399 167.583 228.115C166.861 227.823 166.25 227.424 165.75 226.917C165.257 226.41 164.878 225.826 164.615 225.167C164.358 224.507 164.229 223.809 164.229 223.073V222.677C164.229 221.851 164.344 221.087 164.573 220.385C164.802 219.677 165.142 219.059 165.594 218.531C166.045 218.003 166.611 217.594 167.292 217.302C167.972 217.003 168.764 216.854 169.667 216.854C170.465 216.854 171.181 216.983 171.813 217.24C172.444 217.497 172.979 217.865 173.417 218.344C173.861 218.823 174.198 219.403 174.427 220.083C174.663 220.764 174.781 221.528 174.781 222.375V223.802H165.573V221.604H171.354V221.333C171.361 220.958 171.295 220.639 171.156 220.375C171.024 220.111 170.83 219.91 170.573 219.771C170.316 219.632 170.003 219.562 169.635 219.562C169.253 219.562 168.938 219.646 168.688 219.812C168.444 219.979 168.253 220.208 168.115 220.5C167.983 220.785 167.889 221.115 167.833 221.49C167.778 221.865 167.75 222.26 167.75 222.677V223.073C167.75 223.49 167.806 223.868 167.917 224.208C168.035 224.549 168.201 224.84 168.417 225.083C168.639 225.319 168.903 225.503 169.208 225.635C169.521 225.767 169.875 225.833 170.271 225.833C170.75 225.833 171.222 225.743 171.688 225.562C172.153 225.382 172.552 225.083 172.885 224.667L174.479 226.562C174.25 226.889 173.924 227.205 173.5 227.51C173.083 227.816 172.583 228.066 172 228.26C171.417 228.448 170.764 228.542 170.042 228.542ZM182.063 225.5V220.854C182.063 220.535 182.017 220.26 181.927 220.031C181.837 219.802 181.694 219.625 181.5 219.5C181.306 219.368 181.045 219.302 180.719 219.302C180.455 219.302 180.229 219.347 180.042 219.437C179.854 219.528 179.712 219.663 179.615 219.844C179.517 220.024 179.469 220.253 179.469 220.531H175.958C175.958 220.01 176.073 219.528 176.302 219.083C176.538 218.632 176.872 218.24 177.302 217.906C177.74 217.573 178.26 217.316 178.865 217.135C179.476 216.948 180.156 216.854 180.906 216.854C181.802 216.854 182.601 217.003 183.302 217.302C184.01 217.601 184.569 218.049 184.979 218.646C185.389 219.236 185.594 219.979 185.594 220.875V225.49C185.594 226.226 185.635 226.785 185.719 227.167C185.802 227.542 185.92 227.872 186.073 228.156V228.333H182.552C182.385 227.986 182.26 227.562 182.177 227.062C182.101 226.556 182.063 226.035 182.063 225.5ZM182.49 221.448L182.51 223.323H180.958C180.632 223.323 180.354 223.368 180.125 223.458C179.903 223.549 179.722 223.674 179.583 223.833C179.451 223.986 179.354 224.16 179.292 224.354C179.236 224.549 179.208 224.753 179.208 224.969C179.208 225.177 179.257 225.365 179.354 225.531C179.458 225.691 179.597 225.816 179.771 225.906C179.944 225.997 180.139 226.042 180.354 226.042C180.743 226.042 181.073 225.969 181.344 225.823C181.622 225.67 181.833 225.486 181.979 225.271C182.125 225.056 182.198 224.854 182.198 224.667L182.969 226.104C182.83 226.382 182.67 226.663 182.49 226.948C182.316 227.233 182.097 227.497 181.833 227.74C181.576 227.976 181.26 228.17 180.885 228.323C180.51 228.469 180.056 228.542 179.521 228.542C178.826 228.542 178.188 228.399 177.604 228.115C177.028 227.83 176.566 227.434 176.219 226.927C175.872 226.413 175.698 225.823 175.698 225.156C175.698 224.573 175.802 224.052 176.01 223.594C176.226 223.135 176.549 222.747 176.979 222.427C177.41 222.108 177.958 221.865 178.625 221.698C179.292 221.531 180.076 221.448 180.979 221.448H182.49ZM192.302 225.833C192.628 225.833 192.906 225.774 193.135 225.656C193.372 225.531 193.549 225.358 193.667 225.135C193.792 224.906 193.851 224.632 193.844 224.312H197.146C197.153 225.16 196.944 225.903 196.521 226.542C196.104 227.174 195.535 227.667 194.812 228.021C194.097 228.368 193.288 228.542 192.385 228.542C191.503 228.542 190.733 228.399 190.073 228.115C189.413 227.823 188.861 227.42 188.417 226.906C187.979 226.385 187.649 225.778 187.427 225.083C187.212 224.389 187.104 223.635 187.104 222.823V222.583C187.104 221.771 187.212 221.017 187.427 220.323C187.649 219.622 187.979 219.014 188.417 218.5C188.861 217.979 189.41 217.576 190.062 217.292C190.722 217 191.49 216.854 192.365 216.854C193.302 216.854 194.128 217.031 194.844 217.385C195.566 217.74 196.132 218.253 196.542 218.927C196.951 219.601 197.153 220.417 197.146 221.375H193.844C193.851 221.035 193.799 220.729 193.687 220.458C193.576 220.187 193.403 219.972 193.167 219.812C192.937 219.646 192.642 219.562 192.281 219.562C191.92 219.562 191.628 219.642 191.406 219.802C191.184 219.962 191.014 220.184 190.896 220.469C190.785 220.747 190.708 221.066 190.667 221.427C190.632 221.788 190.615 222.174 190.615 222.583V222.823C190.615 223.24 190.632 223.632 190.667 224C190.708 224.361 190.788 224.681 190.906 224.958C191.024 225.229 191.194 225.444 191.417 225.604C191.639 225.757 191.934 225.833 192.302 225.833ZM204.583 217.062V219.5H197.792V217.062H204.583ZM199.219 214.26H202.729V224.656C202.729 224.955 202.764 225.187 202.833 225.354C202.903 225.514 203.021 225.628 203.188 225.698C203.361 225.76 203.59 225.792 203.875 225.792C204.076 225.792 204.243 225.788 204.375 225.781C204.507 225.767 204.632 225.75 204.75 225.729V228.24C204.451 228.337 204.139 228.41 203.813 228.458C203.486 228.514 203.139 228.542 202.771 228.542C202.021 228.542 201.378 228.424 200.844 228.187C200.316 227.951 199.913 227.58 199.635 227.073C199.358 226.566 199.219 225.906 199.219 225.094V214.26ZM224.125 213.167V228.333H220.479L215.115 218.896V228.333H211.458V213.167H215.115L220.479 222.604V213.167H224.125ZM232.125 225.5V220.854C232.125 220.535 232.08 220.26 231.99 220.031C231.899 219.802 231.757 219.625 231.563 219.5C231.368 219.368 231.108 219.302 230.781 219.302C230.517 219.302 230.292 219.347 230.104 219.437C229.917 219.528 229.774 219.663 229.677 219.844C229.58 220.024 229.531 220.253 229.531 220.531H226.021C226.021 220.01 226.135 219.528 226.365 219.083C226.601 218.632 226.934 218.24 227.365 217.906C227.802 217.573 228.323 217.316 228.927 217.135C229.538 216.948 230.219 216.854 230.969 216.854C231.865 216.854 232.663 217.003 233.365 217.302C234.073 217.601 234.632 218.049 235.042 218.646C235.451 219.236 235.656 219.979 235.656 220.875V225.49C235.656 226.226 235.698 226.785 235.781 227.167C235.865 227.542 235.983 227.872 236.135 228.156V228.333H232.615C232.448 227.986 232.323 227.562 232.24 227.062C232.163 226.556 232.125 226.035 232.125 225.5ZM232.552 221.448L232.573 223.323H231.021C230.694 223.323 230.417 223.368 230.188 223.458C229.965 223.549 229.785 223.674 229.646 223.833C229.514 223.986 229.417 224.16 229.354 224.354C229.299 224.549 229.271 224.753 229.271 224.969C229.271 225.177 229.319 225.365 229.417 225.531C229.521 225.691 229.66 225.816 229.833 225.906C230.007 225.997 230.201 226.042 230.417 226.042C230.806 226.042 231.135 225.969 231.406 225.823C231.684 225.67 231.896 225.486 232.042 225.271C232.188 225.056 232.26 224.854 232.26 224.667L233.031 226.104C232.892 226.382 232.733 226.663 232.552 226.948C232.378 227.233 232.16 227.497 231.896 227.74C231.639 227.976 231.323 228.17 230.948 228.323C230.573 228.469 230.118 228.542 229.583 228.542C228.889 228.542 228.25 228.399 227.667 228.115C227.09 227.83 226.628 227.434 226.281 226.927C225.934 226.413 225.76 225.823 225.76 225.156C225.76 224.573 225.865 224.052 226.073 223.594C226.288 223.135 226.611 222.747 227.042 222.427C227.472 222.108 228.021 221.865 228.688 221.698C229.354 221.531 230.139 221.448 231.042 221.448H232.552ZM243.542 217.062V219.5H236.75V217.062H243.542ZM238.177 214.26H241.687V224.656C241.687 224.955 241.722 225.187 241.792 225.354C241.861 225.514 241.979 225.628 242.146 225.698C242.319 225.76 242.549 225.792 242.833 225.792C243.035 225.792 243.201 225.788 243.333 225.781C243.465 225.767 243.59 225.75 243.708 225.729V228.24C243.41 228.337 243.097 228.41 242.771 228.458C242.444 228.514 242.097 228.542 241.729 228.542C240.979 228.542 240.337 228.424 239.802 228.187C239.274 227.951 238.872 227.58 238.594 227.073C238.316 226.566 238.177 225.906 238.177 225.094V214.26ZM248.646 217.062V228.333H245.125V217.062H248.646ZM244.917 214.156C244.917 213.656 245.097 213.247 245.458 212.927C245.819 212.608 246.288 212.448 246.865 212.448C247.441 212.448 247.91 212.608 248.271 212.927C248.632 213.247 248.813 213.656 248.813 214.156C248.813 214.656 248.632 215.066 248.271 215.385C247.91 215.705 247.441 215.865 246.865 215.865C246.288 215.865 245.819 215.705 245.458 215.385C245.097 215.066 244.917 214.656 244.917 214.156ZM254.875 225.927L257.094 217.062H260.792L257.104 228.333H254.917L254.875 225.927ZM253.563 217.062L255.75 225.927L255.729 228.333H253.531L249.854 217.062H253.563ZM267.146 228.542C266.229 228.542 265.41 228.399 264.688 228.115C263.965 227.823 263.354 227.424 262.854 226.917C262.361 226.41 261.983 225.826 261.719 225.167C261.462 224.507 261.333 223.809 261.333 223.073V222.677C261.333 221.851 261.448 221.087 261.677 220.385C261.906 219.677 262.247 219.059 262.698 218.531C263.149 218.003 263.715 217.594 264.396 217.302C265.076 217.003 265.868 216.854 266.771 216.854C267.569 216.854 268.285 216.983 268.917 217.24C269.549 217.497 270.083 217.865 270.521 218.344C270.965 218.823 271.302 219.403 271.531 220.083C271.767 220.764 271.885 221.528 271.885 222.375V223.802H262.677V221.604H268.458V221.333C268.465 220.958 268.399 220.639 268.26 220.375C268.128 220.111 267.934 219.91 267.677 219.771C267.42 219.632 267.108 219.562 266.74 219.562C266.358 219.562 266.042 219.646 265.792 219.812C265.549 219.979 265.358 220.208 265.219 220.5C265.087 220.785 264.993 221.115 264.938 221.49C264.882 221.865 264.854 222.26 264.854 222.677V223.073C264.854 223.49 264.91 223.868 265.021 224.208C265.139 224.549 265.306 224.84 265.521 225.083C265.743 225.319 266.007 225.503 266.313 225.635C266.625 225.767 266.979 225.833 267.375 225.833C267.854 225.833 268.326 225.743 268.792 225.562C269.257 225.382 269.656 225.083 269.99 224.667L271.583 226.562C271.354 226.889 271.028 227.205 270.604 227.51C270.188 227.816 269.688 228.066 269.104 228.26C268.521 228.448 267.868 228.542 267.146 228.542Z" fill="white"/>
<rect x="339" y="196.333" width="208" height="49.3333" rx="4.66667" fill="#888888" stroke="#888888" stroke-width="4"/>
<path d="M416.5 213.167H422.469C423.635 213.167 424.649 213.34 425.51 213.687C426.372 214.035 427.035 214.549 427.5 215.229C427.972 215.91 428.208 216.75 428.208 217.75C428.208 218.618 428.073 219.344 427.802 219.927C427.531 220.51 427.153 220.993 426.667 221.375C426.188 221.75 425.628 222.059 424.99 222.302L423.792 222.979H418.781L418.76 220.156H422.469C422.934 220.156 423.319 220.073 423.625 219.906C423.931 219.74 424.16 219.503 424.313 219.198C424.472 218.885 424.552 218.514 424.552 218.083C424.552 217.646 424.472 217.271 424.313 216.958C424.153 216.646 423.917 216.406 423.604 216.24C423.299 216.073 422.92 215.99 422.469 215.99H420.156V228.333H416.5V213.167ZM424.802 228.333L421.448 221.625L425.323 221.604L428.719 228.177V228.333H424.802ZM435.708 228.542C434.792 228.542 433.972 228.399 433.25 228.115C432.528 227.823 431.917 227.424 431.417 226.917C430.924 226.41 430.545 225.826 430.281 225.167C430.024 224.507 429.896 223.809 429.896 223.073V222.677C429.896 221.851 430.01 221.087 430.24 220.385C430.469 219.677 430.809 219.059 431.26 218.531C431.712 218.003 432.278 217.594 432.958 217.302C433.639 217.003 434.431 216.854 435.333 216.854C436.132 216.854 436.847 216.983 437.479 217.24C438.111 217.497 438.646 217.865 439.083 218.344C439.528 218.823 439.865 219.403 440.094 220.083C440.33 220.764 440.448 221.528 440.448 222.375V223.802H431.24V221.604H437.021V221.333C437.028 220.958 436.962 220.639 436.823 220.375C436.691 220.111 436.497 219.91 436.24 219.771C435.983 219.632 435.67 219.562 435.302 219.562C434.92 219.562 434.604 219.646 434.354 219.812C434.111 219.979 433.92 220.208 433.781 220.5C433.649 220.785 433.556 221.115 433.5 221.49C433.444 221.865 433.417 222.26 433.417 222.677V223.073C433.417 223.49 433.472 223.868 433.583 224.208C433.701 224.549 433.868 224.84 434.083 225.083C434.306 225.319 434.569 225.503 434.875 225.635C435.187 225.767 435.542 225.833 435.937 225.833C436.417 225.833 436.889 225.743 437.354 225.562C437.819 225.382 438.219 225.083 438.552 224.667L440.146 226.562C439.917 226.889 439.59 227.205 439.167 227.51C438.75 227.816 438.25 228.066 437.667 228.26C437.083 228.448 436.431 228.542 435.708 228.542ZM447.729 225.5V220.854C447.729 220.535 447.684 220.26 447.594 220.031C447.503 219.802 447.361 219.625 447.167 219.5C446.972 219.368 446.712 219.302 446.385 219.302C446.122 219.302 445.896 219.347 445.708 219.437C445.521 219.528 445.378 219.663 445.281 219.844C445.184 220.024 445.135 220.253 445.135 220.531H441.625C441.625 220.01 441.74 219.528 441.969 219.083C442.205 218.632 442.538 218.24 442.969 217.906C443.406 217.573 443.927 217.316 444.531 217.135C445.142 216.948 445.823 216.854 446.573 216.854C447.469 216.854 448.267 217.003 448.969 217.302C449.677 217.601 450.236 218.049 450.646 218.646C451.056 219.236 451.26 219.979 451.26 220.875V225.49C451.26 226.226 451.302 226.785 451.385 227.167C451.469 227.542 451.587 227.872 451.74 228.156V228.333H448.219C448.052 227.986 447.927 227.562 447.844 227.062C447.767 226.556 447.729 226.035 447.729 225.5ZM448.156 221.448L448.177 223.323H446.625C446.299 223.323 446.021 223.368 445.792 223.458C445.569 223.549 445.389 223.674 445.25 223.833C445.118 223.986 445.021 224.16 444.958 224.354C444.903 224.549 444.875 224.753 444.875 224.969C444.875 225.177 444.924 225.365 445.021 225.531C445.125 225.691 445.264 225.816 445.438 225.906C445.611 225.997 445.806 226.042 446.021 226.042C446.41 226.042 446.74 225.969 447.01 225.823C447.288 225.67 447.5 225.486 447.646 225.271C447.792 225.056 447.865 224.854 447.865 224.667L448.635 226.104C448.497 226.382 448.337 226.663 448.156 226.948C447.983 227.233 447.764 227.497 447.5 227.74C447.243 227.976 446.927 228.17 446.552 228.323C446.177 228.469 445.722 228.542 445.188 228.542C444.493 228.542 443.854 228.399 443.271 228.115C442.694 227.83 442.233 227.434 441.885 226.927C441.538 226.413 441.365 225.823 441.365 225.156C441.365 224.573 441.469 224.052 441.677 223.594C441.892 223.135 442.215 222.747 442.646 222.427C443.076 222.108 443.625 221.865 444.292 221.698C444.958 221.531 445.743 221.448 446.646 221.448H448.156ZM457.969 225.833C458.295 225.833 458.573 225.774 458.802 225.656C459.038 225.531 459.215 225.358 459.333 225.135C459.458 224.906 459.517 224.632 459.51 224.312H462.813C462.819 225.16 462.611 225.903 462.188 226.542C461.771 227.174 461.201 227.667 460.479 228.021C459.764 228.368 458.955 228.542 458.052 228.542C457.17 228.542 456.399 228.399 455.74 228.115C455.08 227.823 454.528 227.42 454.083 226.906C453.646 226.385 453.316 225.778 453.094 225.083C452.878 224.389 452.771 223.635 452.771 222.823V222.583C452.771 221.771 452.878 221.017 453.094 220.323C453.316 219.622 453.646 219.014 454.083 218.5C454.528 217.979 455.076 217.576 455.729 217.292C456.389 217 457.156 216.854 458.031 216.854C458.969 216.854 459.795 217.031 460.51 217.385C461.233 217.74 461.799 218.253 462.208 218.927C462.618 219.601 462.819 220.417 462.813 221.375H459.51C459.517 221.035 459.465 220.729 459.354 220.458C459.243 220.187 459.069 219.972 458.833 219.812C458.604 219.646 458.309 219.562 457.948 219.562C457.587 219.562 457.295 219.642 457.073 219.802C456.851 219.962 456.681 220.184 456.563 220.469C456.451 220.747 456.375 221.066 456.333 221.427C456.299 221.788 456.281 222.174 456.281 222.583V222.823C456.281 223.24 456.299 223.632 456.333 224C456.375 224.361 456.455 224.681 456.573 224.958C456.691 225.229 456.861 225.444 457.083 225.604C457.306 225.757 457.601 225.833 457.969 225.833ZM470.25 217.062V219.5H463.458V217.062H470.25ZM464.885 214.26H468.396V224.656C468.396 224.955 468.431 225.187 468.5 225.354C468.569 225.514 468.688 225.628 468.854 225.698C469.028 225.76 469.257 225.792 469.542 225.792C469.743 225.792 469.91 225.788 470.042 225.781C470.174 225.767 470.299 225.75 470.417 225.729V228.24C470.118 228.337 469.806 228.41 469.479 228.458C469.153 228.514 468.806 228.542 468.438 228.542C467.688 228.542 467.045 228.424 466.51 228.187C465.983 227.951 465.58 227.58 465.302 227.073C465.024 226.566 464.885 225.906 464.885 225.094V214.26Z" fill="white"/>
<rect x="571" y="196.333" width="208" height="49.3333" rx="4.66667" fill="#888888" stroke="#888888" stroke-width="4"/>
<path d="M651.073 225.521V228.333H643.406V225.521H651.073ZM644.708 213.167V228.333H641.052V213.167H644.708ZM658.302 225.5V220.854C658.302 220.535 658.257 220.26 658.167 220.031C658.076 219.802 657.934 219.625 657.74 219.5C657.545 219.368 657.285 219.302 656.958 219.302C656.694 219.302 656.469 219.347 656.281 219.437C656.094 219.528 655.951 219.663 655.854 219.844C655.757 220.024 655.708 220.253 655.708 220.531H652.198C652.198 220.01 652.312 219.528 652.542 219.083C652.778 218.632 653.111 218.24 653.542 217.906C653.979 217.573 654.5 217.316 655.104 217.135C655.715 216.948 656.396 216.854 657.146 216.854C658.042 216.854 658.84 217.003 659.542 217.302C660.25 217.601 660.809 218.049 661.219 218.646C661.628 219.236 661.833 219.979 661.833 220.875V225.49C661.833 226.226 661.875 226.785 661.958 227.167C662.042 227.542 662.16 227.872 662.312 228.156V228.333H658.792C658.625 227.986 658.5 227.562 658.417 227.062C658.34 226.556 658.302 226.035 658.302 225.5ZM658.729 221.448L658.75 223.323H657.198C656.872 223.323 656.594 223.368 656.365 223.458C656.142 223.549 655.962 223.674 655.823 223.833C655.691 223.986 655.594 224.16 655.531 224.354C655.476 224.549 655.448 224.753 655.448 224.969C655.448 225.177 655.497 225.365 655.594 225.531C655.698 225.691 655.837 225.816 656.01 225.906C656.184 225.997 656.378 226.042 656.594 226.042C656.983 226.042 657.312 225.969 657.583 225.823C657.861 225.67 658.073 225.486 658.219 225.271C658.365 225.056 658.437 224.854 658.437 224.667L659.208 226.104C659.069 226.382 658.91 226.663 658.729 226.948C658.556 227.233 658.337 227.497 658.073 227.74C657.816 227.976 657.5 228.17 657.125 228.323C656.75 228.469 656.295 228.542 655.76 228.542C655.066 228.542 654.427 228.399 653.844 228.115C653.267 227.83 652.806 227.434 652.458 226.927C652.111 226.413 651.937 225.823 651.937 225.156C651.937 224.573 652.042 224.052 652.25 223.594C652.465 223.135 652.788 222.747 653.219 222.427C653.649 222.108 654.198 221.865 654.865 221.698C655.531 221.531 656.316 221.448 657.219 221.448H658.729ZM667.323 219.854V228.333H663.812V217.062H667.094L667.323 219.854ZM670.656 216.979L670.594 220.24C670.455 220.226 670.267 220.208 670.031 220.187C669.795 220.167 669.597 220.156 669.437 220.156C669.028 220.156 668.674 220.205 668.375 220.302C668.083 220.392 667.84 220.531 667.646 220.719C667.458 220.899 667.319 221.128 667.229 221.406C667.146 221.684 667.108 222.007 667.115 222.375L666.479 221.958C666.479 221.201 666.552 220.514 666.698 219.896C666.851 219.271 667.066 218.733 667.344 218.281C667.622 217.823 667.958 217.472 668.354 217.229C668.75 216.979 669.194 216.854 669.687 216.854C669.861 216.854 670.031 216.865 670.198 216.885C670.372 216.906 670.524 216.937 670.656 216.979ZM677.406 225.5V220.854C677.406 220.535 677.361 220.26 677.271 220.031C677.181 219.802 677.038 219.625 676.844 219.5C676.649 219.368 676.389 219.302 676.063 219.302C675.799 219.302 675.573 219.347 675.385 219.437C675.198 219.528 675.056 219.663 674.958 219.844C674.861 220.024 674.813 220.253 674.813 220.531H671.302C671.302 220.01 671.417 219.528 671.646 219.083C671.882 218.632 672.215 218.24 672.646 217.906C673.083 217.573 673.604 217.316 674.208 217.135C674.819 216.948 675.5 216.854 676.25 216.854C677.146 216.854 677.944 217.003 678.646 217.302C679.354 217.601 679.913 218.049 680.323 218.646C680.733 219.236 680.938 219.979 680.938 220.875V225.49C680.938 226.226 680.979 226.785 681.063 227.167C681.146 227.542 681.264 227.872 681.417 228.156V228.333H677.896C677.729 227.986 677.604 227.562 677.521 227.062C677.444 226.556 677.406 226.035 677.406 225.5ZM677.833 221.448L677.854 223.323H676.302C675.976 223.323 675.698 223.368 675.469 223.458C675.247 223.549 675.066 223.674 674.927 223.833C674.795 223.986 674.698 224.16 674.635 224.354C674.58 224.549 674.552 224.753 674.552 224.969C674.552 225.177 674.601 225.365 674.698 225.531C674.802 225.691 674.941 225.816 675.115 225.906C675.288 225.997 675.483 226.042 675.698 226.042C676.087 226.042 676.417 225.969 676.688 225.823C676.965 225.67 677.177 225.486 677.323 225.271C677.469 225.056 677.542 224.854 677.542 224.667L678.313 226.104C678.174 226.382 678.014 226.663 677.833 226.948C677.66 227.233 677.441 227.497 677.177 227.74C676.92 227.976 676.604 228.17 676.229 228.323C675.854 228.469 675.399 228.542 674.865 228.542C674.17 228.542 673.531 228.399 672.948 228.115C672.372 227.83 671.91 227.434 671.563 226.927C671.215 226.413 671.042 225.823 671.042 225.156C671.042 224.573 671.146 224.052 671.354 223.594C671.569 223.135 671.892 222.747 672.323 222.427C672.753 222.108 673.302 221.865 673.969 221.698C674.635 221.531 675.42 221.448 676.323 221.448H677.833ZM686.781 225.927L689 217.062H692.698L689.01 228.333H686.823L686.781 225.927ZM685.469 217.062L687.656 225.927L687.635 228.333H685.437L681.76 217.062H685.469ZM699.052 228.542C698.135 228.542 697.316 228.399 696.594 228.115C695.872 227.823 695.26 227.424 694.76 226.917C694.267 226.41 693.889 225.826 693.625 225.167C693.368 224.507 693.24 223.809 693.24 223.073V222.677C693.24 221.851 693.354 221.087 693.583 220.385C693.812 219.677 694.153 219.059 694.604 218.531C695.056 218.003 695.622 217.594 696.302 217.302C696.983 217.003 697.774 216.854 698.677 216.854C699.476 216.854 700.191 216.983 700.823 217.24C701.455 217.497 701.99 217.865 702.427 218.344C702.872 218.823 703.208 219.403 703.437 220.083C703.674 220.764 703.792 221.528 703.792 222.375V223.802H694.583V221.604H700.365V221.333C700.372 220.958 700.306 220.639 700.167 220.375C700.035 220.111 699.84 219.91 699.583 219.771C699.326 219.632 699.014 219.562 698.646 219.562C698.264 219.562 697.948 219.646 697.698 219.812C697.455 219.979 697.264 220.208 697.125 220.5C696.993 220.785 696.899 221.115 696.844 221.49C696.788 221.865 696.76 222.26 696.76 222.677V223.073C696.76 223.49 696.816 223.868 696.927 224.208C697.045 224.549 697.212 224.84 697.427 225.083C697.649 225.319 697.913 225.503 698.219 225.635C698.531 225.767 698.885 225.833 699.281 225.833C699.76 225.833 700.233 225.743 700.698 225.562C701.163 225.382 701.562 225.083 701.896 224.667L703.49 226.562C703.26 226.889 702.934 227.205 702.51 227.51C702.094 227.816 701.594 228.066 701.01 228.26C700.427 228.448 699.774 228.542 699.052 228.542ZM708.927 212.333V228.333H705.406V212.333H708.927Z" fill="white"/>
<rect x="803" y="196.333" width="208" height="49.3333" rx="4.66667" fill="#888888" stroke="#888888" stroke-width="4"/>
<path d="M870.333 213.167V228.333H866.677V213.167H870.333ZM876.229 219.479V222.292H869.292V219.479H876.229ZM876.823 213.167V215.99H869.292V213.167H876.823ZM881.885 217.062V228.333H878.365V217.062H881.885ZM878.156 214.156C878.156 213.656 878.337 213.247 878.698 212.927C879.059 212.608 879.528 212.448 880.104 212.448C880.681 212.448 881.149 212.608 881.51 212.927C881.872 213.247 882.052 213.656 882.052 214.156C882.052 214.656 881.872 215.066 881.51 215.385C881.149 215.705 880.681 215.865 880.104 215.865C879.528 215.865 879.059 215.705 878.698 215.385C878.337 215.066 878.156 214.656 878.156 214.156ZM887.594 219.854V228.333H884.083V217.062H887.365L887.594 219.854ZM890.927 216.979L890.865 220.24C890.726 220.226 890.538 220.208 890.302 220.187C890.066 220.167 889.868 220.156 889.708 220.156C889.299 220.156 888.944 220.205 888.646 220.302C888.354 220.392 888.111 220.531 887.917 220.719C887.729 220.899 887.59 221.128 887.5 221.406C887.417 221.684 887.378 222.007 887.385 222.375L886.75 221.958C886.75 221.201 886.823 220.514 886.969 219.896C887.122 219.271 887.337 218.733 887.615 218.281C887.892 217.823 888.229 217.472 888.625 217.229C889.021 216.979 889.465 216.854 889.958 216.854C890.132 216.854 890.302 216.865 890.469 216.885C890.642 216.906 890.795 216.937 890.927 216.979ZM897.385 228.542C896.469 228.542 895.649 228.399 894.927 228.115C894.205 227.823 893.594 227.424 893.094 226.917C892.601 226.41 892.222 225.826 891.958 225.167C891.701 224.507 891.573 223.809 891.573 223.073V222.677C891.573 221.851 891.688 221.087 891.917 220.385C892.146 219.677 892.486 219.059 892.938 218.531C893.389 218.003 893.955 217.594 894.635 217.302C895.316 217.003 896.108 216.854 897.01 216.854C897.809 216.854 898.524 216.983 899.156 217.24C899.788 217.497 900.323 217.865 900.76 218.344C901.205 218.823 901.542 219.403 901.771 220.083C902.007 220.764 902.125 221.528 902.125 222.375V223.802H892.917V221.604H898.698V221.333C898.705 220.958 898.639 220.639 898.5 220.375C898.368 220.111 898.174 219.91 897.917 219.771C897.66 219.632 897.347 219.562 896.979 219.562C896.597 219.562 896.281 219.646 896.031 219.812C895.788 219.979 895.597 220.208 895.458 220.5C895.326 220.785 895.233 221.115 895.177 221.49C895.122 221.865 895.094 222.26 895.094 222.677V223.073C895.094 223.49 895.149 223.868 895.26 224.208C895.378 224.549 895.545 224.84 895.76 225.083C895.983 225.319 896.247 225.503 896.552 225.635C896.865 225.767 897.219 225.833 897.615 225.833C898.094 225.833 898.566 225.743 899.031 225.562C899.497 225.382 899.896 225.083 900.229 224.667L901.823 226.562C901.594 226.889 901.267 227.205 900.844 227.51C900.427 227.816 899.927 228.066 899.344 228.26C898.76 228.448 898.108 228.542 897.385 228.542ZM903.583 212.333H907.094V225.562L906.729 228.333H903.583V212.333ZM914.01 222.573V222.792C914.01 223.646 913.924 224.424 913.75 225.125C913.576 225.826 913.309 226.434 912.948 226.948C912.587 227.455 912.132 227.847 911.583 228.125C911.035 228.403 910.385 228.542 909.635 228.542C908.955 228.542 908.372 228.396 907.885 228.104C907.399 227.806 906.993 227.396 906.667 226.875C906.34 226.347 906.076 225.74 905.875 225.052C905.674 224.358 905.514 223.615 905.396 222.823V222.562C905.514 221.778 905.674 221.042 905.875 220.354C906.076 219.66 906.34 219.052 906.667 218.531C906.993 218.003 907.396 217.594 907.875 217.302C908.361 217.003 908.941 216.854 909.615 216.854C910.372 216.854 911.024 216.997 911.573 217.281C912.128 217.566 912.587 217.965 912.948 218.479C913.309 218.993 913.576 219.597 913.75 220.292C913.924 220.986 914.01 221.747 914.01 222.573ZM910.5 222.792V222.573C910.5 222.163 910.476 221.778 910.427 221.417C910.378 221.056 910.292 220.736 910.167 220.458C910.042 220.181 909.865 219.962 909.635 219.802C909.406 219.642 909.108 219.562 908.74 219.562C908.365 219.562 908.049 219.625 907.792 219.75C907.542 219.875 907.34 220.056 907.188 220.292C907.042 220.521 906.938 220.806 906.875 221.146C906.813 221.479 906.785 221.858 906.792 222.281V223.104C906.778 223.681 906.83 224.174 906.948 224.583C907.066 224.993 907.271 225.306 907.563 225.521C907.854 225.736 908.253 225.844 908.76 225.844C909.135 225.844 909.438 225.771 909.667 225.625C909.903 225.479 910.08 225.271 910.198 225C910.316 224.729 910.396 224.406 910.438 224.031C910.479 223.656 910.5 223.243 910.5 222.792ZM921.427 225.5V220.854C921.427 220.535 921.382 220.26 921.292 220.031C921.201 219.802 921.059 219.625 920.865 219.5C920.67 219.368 920.41 219.302 920.083 219.302C919.819 219.302 919.594 219.347 919.406 219.437C919.219 219.528 919.076 219.663 918.979 219.844C918.882 220.024 918.833 220.253 918.833 220.531H915.323C915.323 220.01 915.437 219.528 915.667 219.083C915.903 218.632 916.236 218.24 916.667 217.906C917.104 217.573 917.625 217.316 918.229 217.135C918.84 216.948 919.521 216.854 920.271 216.854C921.167 216.854 921.965 217.003 922.667 217.302C923.375 217.601 923.934 218.049 924.344 218.646C924.753 219.236 924.958 219.979 924.958 220.875V225.49C924.958 226.226 925 226.785 925.083 227.167C925.167 227.542 925.285 227.872 925.437 228.156V228.333H921.917C921.75 227.986 921.625 227.562 921.542 227.062C921.465 226.556 921.427 226.035 921.427 225.5ZM921.854 221.448L921.875 223.323H920.323C919.997 223.323 919.719 223.368 919.49 223.458C919.267 223.549 919.087 223.674 918.948 223.833C918.816 223.986 918.719 224.16 918.656 224.354C918.601 224.549 918.573 224.753 918.573 224.969C918.573 225.177 918.622 225.365 918.719 225.531C918.823 225.691 918.962 225.816 919.135 225.906C919.309 225.997 919.503 226.042 919.719 226.042C920.108 226.042 920.437 225.969 920.708 225.823C920.986 225.67 921.198 225.486 921.344 225.271C921.49 225.056 921.562 224.854 921.562 224.667L922.333 226.104C922.194 226.382 922.035 226.663 921.854 226.948C921.681 227.233 921.462 227.497 921.198 227.74C920.941 227.976 920.625 228.17 920.25 228.323C919.875 228.469 919.42 228.542 918.885 228.542C918.191 228.542 917.552 228.399 916.969 228.115C916.392 227.83 915.931 227.434 915.583 226.927C915.236 226.413 915.062 225.823 915.062 225.156C915.062 224.573 915.167 224.052 915.375 223.594C915.59 223.135 915.913 222.747 916.344 222.427C916.774 222.108 917.323 221.865 917.99 221.698C918.656 221.531 919.441 221.448 920.344 221.448H921.854ZM932.812 225.167C932.812 224.972 932.747 224.806 932.615 224.667C932.49 224.521 932.267 224.389 931.948 224.271C931.628 224.146 931.181 224.021 930.604 223.896C930.056 223.778 929.538 223.622 929.052 223.427C928.573 223.233 928.153 222.997 927.792 222.719C927.431 222.441 927.146 222.111 926.937 221.729C926.736 221.347 926.635 220.91 926.635 220.417C926.635 219.937 926.736 219.486 926.937 219.062C927.146 218.632 927.448 218.253 927.844 217.927C928.247 217.594 928.736 217.333 929.312 217.146C929.889 216.951 930.545 216.854 931.281 216.854C932.295 216.854 933.17 217.01 933.906 217.323C934.642 217.628 935.208 218.059 935.604 218.615C936.007 219.163 936.208 219.799 936.208 220.521H932.698C932.698 220.236 932.649 219.993 932.552 219.792C932.462 219.59 932.312 219.437 932.104 219.333C931.896 219.222 931.618 219.167 931.271 219.167C931.028 219.167 930.806 219.212 930.604 219.302C930.41 219.392 930.253 219.517 930.135 219.677C930.017 219.837 929.958 220.024 929.958 220.24C929.958 220.392 929.993 220.531 930.062 220.656C930.139 220.774 930.253 220.885 930.406 220.99C930.559 221.087 930.753 221.177 930.99 221.26C931.226 221.337 931.51 221.406 931.844 221.469C932.601 221.608 933.309 221.806 933.969 222.062C934.628 222.319 935.163 222.684 935.573 223.156C935.99 223.628 936.198 224.264 936.198 225.062C936.198 225.562 936.083 226.024 935.854 226.448C935.625 226.865 935.295 227.233 934.865 227.552C934.434 227.865 933.917 228.108 933.312 228.281C932.708 228.455 932.028 228.542 931.271 228.542C930.194 228.542 929.285 228.351 928.542 227.969C927.799 227.58 927.236 227.094 926.854 226.51C926.479 225.92 926.292 225.323 926.292 224.719H929.562C929.576 225.066 929.66 225.351 929.812 225.573C929.972 225.795 930.184 225.958 930.448 226.062C930.712 226.167 931.017 226.219 931.365 226.219C931.684 226.219 931.948 226.174 932.156 226.083C932.372 225.993 932.535 225.872 932.646 225.719C932.757 225.559 932.812 225.375 932.812 225.167ZM943.302 228.542C942.385 228.542 941.566 228.399 940.844 228.115C940.122 227.823 939.51 227.424 939.01 226.917C938.517 226.41 938.139 225.826 937.875 225.167C937.618 224.507 937.49 223.809 937.49 223.073V222.677C937.49 221.851 937.604 221.087 937.833 220.385C938.062 219.677 938.403 219.059 938.854 218.531C939.306 218.003 939.872 217.594 940.552 217.302C941.233 217.003 942.024 216.854 942.927 216.854C943.726 216.854 944.441 216.983 945.073 217.24C945.705 217.497 946.24 217.865 946.677 218.344C947.122 218.823 947.458 219.403 947.687 220.083C947.924 220.764 948.042 221.528 948.042 222.375V223.802H938.833V221.604H944.615V221.333C944.622 220.958 944.556 220.639 944.417 220.375C944.285 220.111 944.09 219.91 943.833 219.771C943.576 219.632 943.264 219.562 942.896 219.562C942.514 219.562 942.198 219.646 941.948 219.812C941.705 219.979 941.514 220.208 941.375 220.5C941.243 220.785 941.149 221.115 941.094 221.49C941.038 221.865 941.01 222.26 941.01 222.677V223.073C941.01 223.49 941.066 223.868 941.177 224.208C941.295 224.549 941.462 224.84 941.677 225.083C941.899 225.319 942.163 225.503 942.469 225.635C942.781 225.767 943.135 225.833 943.531 225.833C944.01 225.833 944.483 225.743 944.948 225.562C945.413 225.382 945.812 225.083 946.146 224.667L947.74 226.562C947.51 226.889 947.184 227.205 946.76 227.51C946.344 227.816 945.844 228.066 945.26 228.26C944.677 228.448 944.024 228.542 943.302 228.542Z" fill="white"/>
</svg>
